HIERARCHY
ROOT Root
{
  OFFSET 0.0 0.0 0.0
  CHANNELS 6 Xposition Yposition Zposition Zrotation Yrotation Xrotation
  JOINT Hips
  {
    OFFSET 0.0 100.0 0.0
    CHANNELS 6 Xposition Yposition Zposition Zrotation Yrotation Xrotation
    JOINT Spine1
    {
      OFFSET 5.003913 -0.037094 -0.013727
      CHANNELS 3 Zrotation Yrotation Xrotation
      JOINT Spine2
      {
        OFFSET 7.125363 -1e-06 0.0
        CHANNELS 3 Zrotation Yrotation Xrotation
        JOINT Chest
        {
          OFFSET 7.594027 1e-06 0.0
          CHANNELS 3 Zrotation Yrotation Xrotation
          JOINT Neck1
          {
            OFFSET 26.313086 -0.460272 -0.181672
            CHANNELS 3 Zrotation Yrotation Xrotation
            JOINT Neck2
            {
              OFFSET 8.045911 0.0 0.0
              CHANNELS 3 Zrotation Yrotation Xrotation
              JOINT Head
              {
                OFFSET 6.432774 0.0 0.0
                CHANNELS 3 Zrotation Yrotation Xrotation
                JOINT HeadEnd
                {
                  OFFSET 16.169773 0.06451 0.00362
                  CHANNELS 3 Zrotation Yrotation Xrotation
                }
                JOINT Jaw
                {
                  OFFSET 0.108741 3.12938 0.002639
                  CHANNELS 3 Zrotation Yrotation Xrotation
                }
                JOINT LeftEye
                {
                  OFFSET 4.45173 8.166359 3.206392
                  CHANNELS 3 Zrotation Yrotation Xrotation
                }
                JOINT RightEye
                {
                  OFFSET 4.436895 8.135758 -3.222429
                  CHANNELS 3 Zrotation Yrotation Xrotation
                }
              }
            }
          }
          JOINT LeftShoulder
          {
            OFFSET 23.218927 5.195579 1.621656
            CHANNELS 3 Zrotation Yrotation Xrotation
            JOINT LeftArm
            {
              OFFSET 15.902118 2e-06 -2e-06
              CHANNELS 3 Zrotation Yrotation Xrotation
              JOINT LeftForeArm
              {
                OFFSET 28.739307 0.0 -1e-06
                CHANNELS 3 Zrotation Yrotation Xrotation
                JOINT LeftHand
                {
                  OFFSET 27.093981 -4e-06 0.0
                  CHANNELS 3 Zrotation Yrotation Xrotation
                  JOINT LeftHandThumb1
                  {
                    OFFSET 2.276781 3.380274 0.83384
                    CHANNELS 3 Zrotation Yrotation Xrotation
                    JOINT LeftHandThumb2
                    {
                      OFFSET 4.705309 -1e-06 -1e-06
                      CHANNELS 3 Zrotation Yrotation Xrotation
                      JOINT LeftHandThumb3
                      {
                        OFFSET 2.798515 0.0 3e-06
                        CHANNELS 3 Zrotation Yrotation Xrotation
                        JOINT LeftHandThumbEnd
                        {
                          OFFSET 3.180793 4e-06 -4e-06
                          CHANNELS 3 Zrotation Yrotation Xrotation
                        }
                      }
                    }
                  }
                  JOINT LeftHandIndex1
                  {
                    OFFSET 3.247786 2.352677 0.137192
                    CHANNELS 3 Zrotation Yrotation Xrotation
                    JOINT LeftHandIndex2
                    {
                      OFFSET 6.367095 1e-06 0.0
                      CHANNELS 3 Zrotation Yrotation Xrotation
                      JOINT LeftHandIndex3
                      {
                        OFFSET 3.662364 0.0 0.0
                        CHANNELS 3 Zrotation Yrotation Xrotation
                        JOINT LeftHandIndex4
                        {
                          OFFSET 2.329242 4e-06 -4e-06
                          CHANNELS 3 Zrotation Yrotation Xrotation
                          JOINT LeftHandIndexEnd
                          {
                            OFFSET 2.767823 1e-06 0.0
                            CHANNELS 3 Zrotation Yrotation Xrotation
                          }
                        }
                      }
                    }
                  }
                  JOINT LeftHandMiddle1
                  {
                    OFFSET 3.163612 0.945023 -0.406112
                    CHANNELS 3 Zrotation Yrotation Xrotation
                    JOINT LeftHandMiddle2
                    {
                      OFFSET 6.276789 3e-06 0.0
                      CHANNELS 3 Zrotation Yrotation Xrotation
                      JOINT LeftHandMiddle3
                      {
                        OFFSET 4.35652 -1e-06 4e-06
                        CHANNELS 3 Zrotation Yrotation Xrotation
                        JOINT LeftHandMiddle4
                        {
                          OFFSET 2.996877 0.0 8e-06
                          CHANNELS 3 Zrotation Yrotation Xrotation
                          JOINT LeftHandMiddleEnd
                          {
                            OFFSET 2.323256 3e-06 -4e-06
                            CHANNELS 3 Zrotation Yrotation Xrotation
                          }
                        }
                      }
                    }
                  }
                  JOINT LeftHandRing1
                  {
                    OFFSET 2.882606 -0.309162 0.107445
                    CHANNELS 3 Zrotation Yrotation Xrotation
                    JOINT LeftHandRing2
                    {
                      OFFSET 6.033198 0.0 4e-06
                      CHANNELS 3 Zrotation Yrotation Xrotation
                      JOINT LeftHandRing3
                      {
                        OFFSET 4.350578 3e-06 0.0
                        CHANNELS 3 Zrotation Yrotation Xrotation
                        JOINT LeftHandRing4
                        {
                          OFFSET 2.651321 2e-06 -7e-06
                          CHANNELS 3 Zrotation Yrotation Xrotation
                          JOINT LeftHandRingEnd
                          {
                            OFFSET 1.937663 1e-06 -4e-06
                            CHANNELS 3 Zrotation Yrotation Xrotation
                          }
                        }
                      }
                    }
                  }
                  JOINT LeftHandPinky1
                  {
                    OFFSET 2.865315 -1.525436 0.575687
                    CHANNELS 3 Zrotation Yrotation Xrotation
                    JOINT LeftHandPinky2
                    {
                      OFFSET 5.54936 1e-06 -8e-06
                      CHANNELS 3 Zrotation Yrotation Xrotation
                      JOINT LeftHandPinky3
                      {
                        OFFSET 3.070974 0.0 -4e-06
                        CHANNELS 3 Zrotation Yrotation Xrotation
                        JOINT LeftHandPinky4
                        {
                          OFFSET 1.549672 1e-06 0.0
                          CHANNELS 3 Zrotation Yrotation Xrotation
                          JOINT LeftHandPinkyEnd
                          {
                            OFFSET 1.952123 0.0 0.0
                            CHANNELS 3 Zrotation Yrotation Xrotation
                          }
                        }
                      }
                    }
                  }
                }
              }
            }
          }
          JOINT RightShoulder
          {
            OFFSET 23.161716 5.296122 -1.380114
            CHANNELS 3 Zrotation Yrotation Xrotation
            JOINT RightArm
            {
              OFFSET -16.027195 -2e-06 1.1e-05
              CHANNELS 3 Zrotation Yrotation Xrotation
              JOINT RightForeArm
              {
                OFFSET -28.736639 4e-06 2e-06
                CHANNELS 3 Zrotation Yrotation Xrotation
                JOINT RightHand
                {
                  OFFSET -27.133619 6e-06 0.0
                  CHANNELS 3 Zrotation Yrotation Xrotation
                  JOINT RightHandThumb1
                  {
                    OFFSET -2.274328 -3.351035 -0.83067
                    CHANNELS 3 Zrotation Yrotation Xrotation
                    JOINT RightHandThumb2
                    {
                      OFFSET -4.703594 -3e-06 2e-06
                      CHANNELS 3 Zrotation Yrotation Xrotation
                      JOINT RightHandThumb3
                      {
                        OFFSET -2.794935 -4e-06 -3e-06
                        CHANNELS 3 Zrotation Yrotation Xrotation
                        JOINT RightHandThumbEnd
                        {
                          OFFSET -3.183852 4e-06 1e-06
                          CHANNELS 3 Zrotation Yrotation Xrotation
                        }
                      }
                    }
                  }
                  JOINT RightHandIndex1
                  {
                    OFFSET -3.253496 -2.33755 -0.127667
                    CHANNELS 3 Zrotation Yrotation Xrotation
                    JOINT RightHandIndex2
                    {
                      OFFSET -6.344434 0.0 0.0
                      CHANNELS 3 Zrotation Yrotation Xrotation
                      JOINT RightHandIndex3
                      {
                        OFFSET -3.654871 0.0 -8e-06
                        CHANNELS 3 Zrotation Yrotation Xrotation
                        JOINT RightHandIndex4
                        {
                          OFFSET -2.327586 -1e-06 0.0
                          CHANNELS 3 Zrotation Yrotation Xrotation
                          JOINT RightHandIndexEnd
                          {
                            OFFSET -2.770001 3e-06 8e-06
                            CHANNELS 3 Zrotation Yrotation Xrotation
                          }
                        }
                      }
                    }
                  }
                  JOINT RightHandMiddle1
                  {
                    OFFSET -3.168223 -0.944764 0.411762
                    CHANNELS 3 Zrotation Yrotation Xrotation
                    JOINT RightHandMiddle2
                    {
                      OFFSET -6.266691 -1e-06 -4e-06
                      CHANNELS 3 Zrotation Yrotation Xrotation
                      JOINT RightHandMiddle3
                      {
                        OFFSET -4.348901 0.0 0.0
                        CHANNELS 3 Zrotation Yrotation Xrotation
                        JOINT RightHandMiddle4
                        {
                          OFFSET -3.00024 2e-06 -4e-06
                          CHANNELS 3 Zrotation Yrotation Xrotation
                          JOINT RightHandMiddleEnd
                          {
                            OFFSET -2.321477 -4e-06 -4e-06
                            CHANNELS 3 Zrotation Yrotation Xrotation
                          }
                        }
                      }
                    }
                  }
                  JOINT RightHandRing1
                  {
                    OFFSET -2.885654 0.293261 -0.119232
                    CHANNELS 3 Zrotation Yrotation Xrotation
                    JOINT RightHandRing2
                    {
                      OFFSET -6.032835 -1e-06 -4e-06
                      CHANNELS 3 Zrotation Yrotation Xrotation
                      JOINT RightHandRing3
                      {
                        OFFSET -4.33881 0.0 -4e-06
                        CHANNELS 3 Zrotation Yrotation Xrotation
                        JOINT RightHandRing4
                        {
                          OFFSET -2.654903 -4e-06 -4e-06
                          CHANNELS 3 Zrotation Yrotation Xrotation
                          JOINT RightHandRingEnd
                          {
                            OFFSET -1.935122 0.0 4e-06
                            CHANNELS 3 Zrotation Yrotation Xrotation
                          }
                        }
                      }
                    }
                  }
                  JOINT RightHandPinky1
                  {
                    OFFSET -2.866241 1.503904 -0.60527
                    CHANNELS 3 Zrotation Yrotation Xrotation
                    JOINT RightHandPinky2
                    {
                      OFFSET -5.553177 -2e-06 0.0
                      CHANNELS 3 Zrotation Yrotation Xrotation
                      JOINT RightHandPinky3
                      {
                        OFFSET -3.062664 -1e-06 -4e-06
                        CHANNELS 3 Zrotation Yrotation Xrotation
                        JOINT RightHandPinky4
                        {
                          OFFSET -1.546529 2e-06 4e-06
                          CHANNELS 3 Zrotation Yrotation Xrotation
                          JOINT RightHandPinkyEnd
                          {
                            OFFSET -1.952341 0.0 -4e-06
                            CHANNELS 3 Zrotation Yrotation Xrotation
                          }
                        }
                      }
                    }
                  }
                }
              }
            }
          }
        }
      }
    }
    JOINT LeftLeg
    {
      OFFSET -8.443107 2.567604 10.043214
      CHANNELS 3 Zrotation Yrotation Xrotation
      JOINT LeftShin
      {
        OFFSET 43.229198 1e-06 -1e-06
        CHANNELS 3 Zrotation Yrotation Xrotation
        JOINT LeftFoot
        {
          OFFSET 42.298611 1e-06 1e-06
          CHANNELS 3 Zrotation Yrotation Xrotation
          JOINT LeftToeBase
          {
            OFFSET 14.165858 1e-06 0.0
            CHANNELS 3 Zrotation Yrotation Xrotation
            JOINT LeftToeEnd
            {
              OFFSET 6.7141 -0.234461 0.0
              CHANNELS 3 Zrotation Yrotation Xrotation
            }
          }
        }
      }
    }
    JOINT RightLeg
    {
      OFFSET -8.303923 2.592729 -10.047278
      CHANNELS 3 Zrotation Yrotation Xrotation
      JOINT RightShin
      {
        OFFSET -43.369682 0.0 1e-06
        CHANNELS 3 Zrotation Yrotation Xrotation
        JOINT RightFoot
        {
          OFFSET -42.260784 4e-06 2e-06
          CHANNELS 3 Zrotation Yrotation Xrotation
          JOINT RightToeBase
          {
            OFFSET -14.222245 -2e-06 -1e-06
            CHANNELS 3 Zrotation Yrotation Xrotation
            JOINT RightToeEnd
            {
              OFFSET -6.660062 0.232574 -2e-06
              CHANNELS 3 Zrotation Yrotation Xrotation
            }
          }
        }
      }
    }
  }
}
MOTION
Frames: 4
Frame Time: 0.03333333333333333
0.0 0.0 0.0 0.0 -0.0 0.0 -0.501239 98.646774 0.771697 90.745514 9.087873 89.78286 1.594615 0.279086 -0.175433 -10.265964 -0.758084 -0.215945 17.048302 -0.173561 -2.301425 19.099039 6.671988 2.612269 -2.524684 -0.627732 -0.371023 -32.423443 1.508322 -2.578287 6e-06 -0.0 -0.0 0.071022 0.003105 0.111887 0.030191 0.032369 0.099666 -0.026028 -0.016577 0.125961 -122.627151 -76.042618 139.343063 38.46978 -58.923626 0.634125 29.825699 0.393759 0.055272 2.339242 0.225735 8.318283 17.636625 -26.32272 52.411179 -19.46665 -14.395594 29.410378 0.0 -8.774819 -1e-06 15.743382 -18.207348 6.145336 -0.609778 -1.795653 -3.889327 -4.807091 -11.046808 -2.937848 3e-06 -20.976009 -1e-06 -5.019969 -25.033548 -4.03188 5e-06 0.0 -1e-06 -10.634533 -5.686971 -3.565588 10.57327 -17.922945 -3.113897 2e-06 -13.821203 -3e-06 -0.501778 -31.181498 -4.027017 -11.444213 -59.467529 7.320729 -13.982714 -7.150198 -2.87504 13.772726 -8.401489 -3.218239 0.347731 -34.21154 0.771653 -0.963031 -17.733366 2.621021 1e-06 1e-06 1e-06 -17.346418 -20.095211 -4.201784 21.757557 -1.638375 3.86643 0.0 -6.338821 0.0 -1.69759 -22.59174 -6.194005 -2e-06 -1e-06 -0.0 30.689703 -67.962341 169.57045 42.944424 -50.789021 -7.703354 29.87044 -0.145286 0.006914 -1.214605 -3.077265 17.682665 22.18211 -20.375895 49.933319 -16.701807 -16.743526 28.476528 -2e-06 -12.690599 -1e-06 16.082636 -17.984852 2.769779 -0.10592 -1.513854 -4.275881 -5.039041 -5.612871 -2.953553 4e-06 -11.02052 -0.0 -6.111296 -15.89533 -3.840471 -1e-06 2e-06 -1e-06 -10.28337 -5.680288 -4.341839 11.028289 -11.302402 -2.372632 -1.38427 -14.238581 -6.320118 -0.625442 -26.924187 -3.827598 -4.571932 -50.029144 -3.590994 -13.708525 -7.363476 -3.72094 18.141148 -14.052737 -3.242676 6e-06 -18.787268 -3e-06 -0.429712 -8.456047 2.555504 2e-06 -2e-06 -3e-06 -15.923536 -20.094482 -5.473583 30.419207 -7.190823 1.735927 1e-06 -8.162925 -2e-06 -1.861903 -22.861467 -6.167943 2e-06 -5e-06 0.0 -166.2435 -4.886932 -14.724208 11.623471 -0.004701 0.249864 -83.220451 7.186621 -6.020721 -3.776063 1.462031 2.205568 -0.999999 -0.0 0.0 8.543713 -4.232755 -3.153916 17.749496 -0.069398 0.070126 -86.352882 7.26982 -4.939777 -4.130065 0.68496 1.70175 -1.000002 0.0 -0.0 
0.0 0.0 0.0 0.0 -0.0 0.0 -0.445686 98.697365 0.684051 90.728249 9.001361 89.760986 1.593434 0.267528 -0.187079 -10.261298 -0.733419 -0.172978 16.99225 -0.182857 -2.338815 19.042534 6.663657 2.608016 -2.488233 -0.5941 -0.403032 -32.413532 1.462143 -2.619198 6e-06 0.0 -0.0 0.068782 0.007698 0.144079 0.065652 0.034809 0.135613 0.011998 -0.010085 0.15373 -122.469215 -76.145767 139.172531 38.701126 -58.959061 0.236057 29.764565 0.318941 -0.00415 2.343394 -0.017185 8.580564 17.636625 -26.322725 52.411186 -19.46666 -14.395598 29.410381 -1e-06 -8.77482 -2e-06 15.752752 -18.156172 6.102613 -0.609776 -1.795652 -3.889329 -4.807088 -11.046808 -2.937848 6e-06 -20.976009 -2e-06 -5.019969 -25.033552 -4.031882 6e-06 1e-06 -2e-06 -10.634531 -5.686967 -3.565584 10.573272 -17.922947 -3.113901 4e-06 -13.821203 -2e-06 -0.50178 -31.181488 -4.027011 -11.399608 -59.447346 7.386617 -13.982711 -7.150195 -2.875041 13.772727 -8.401491 -3.218238 0.347737 -34.211544 0.771653 -0.96303 -17.733364 2.621023 1e-06 -1e-06 1e-06 -17.346413 -20.095211 -4.201779 21.757555 -1.638374 3.866426 2e-06 -6.338822 2e-06 -1.697589 -22.591742 -6.194004 -2e-06 -5e-06 -1e-06 30.465435 -67.859299 169.894379 42.747593 -50.601463 -7.771389 29.831619 -0.191519 -0.025714 -1.11266 -3.12075 17.357653 22.182117 -20.375906 49.933331 -16.701811 -16.74353 28.476536 -3e-06 -12.6906 -0.0 16.082716 -17.981047 2.77261 -0.105919 -1.513856 -4.275882 -5.03904 -5.61287 -2.953556 5e-06 -11.020523 -1e-06 -6.111297 -15.89533 -3.840473 -1e-06 -0.0 1e-06 -10.283371 -5.680286 -4.341841 11.028296 -11.302406 -2.372634 -1.384268 -14.238583 -6.320121 -0.625439 -26.924196 -3.827599 -4.583373 -50.098587 -3.565011 -13.708525 -7.363476 -3.720942 18.14115 -14.052742 -3.242676 7e-06 -18.78727 -0.0 -0.429712 -8.456045 2.555504 3e-06 -3e-06 -2e-06 -15.923536 -20.094482 -5.473584 30.419214 -7.190827 1.735926 2e-06 -8.162925 -2e-06 -1.861902 -22.861473 -6.167939 2e-06 -4e-06 -1e-06 -166.47876 -4.88229 -14.614868 11.822219 0.001997 0.291626 -83.103989 7.052907 -5.960897 -3.69907 1.461121 2.214546 -0.999999 -0.0 0.0 8.322553 -4.270096 -3.202132 17.879677 -0.068598 0.075043 -86.128235 7.23829 -4.981169 -4.077181 0.651166 1.697909 -1.000001 -0.0 -0.0 
0.0 0.0 0.0 0.0 -0.0 0.0 -0.394282 98.712463 0.542755 90.753159 8.944488 89.751549 1.604454 0.226588 -0.184209 -10.255466 -0.734388 -0.146408 16.998629 -0.20223 -2.348284 19.023447 6.638164 2.618847 -2.496861 -0.577929 -0.494713 -32.369289 1.391513 -2.709394 6e-06 0.0 -0.0 0.06693 0.007898 0.156376 0.071306 0.029059 0.150867 0.021307 -0.004497 0.162599 -122.362267 -76.226883 139.024887 38.838188 -58.940784 0.037452 29.803333 0.271513 -0.047119 2.257958 -0.225785 8.6485 17.636627 -26.322725 52.411182 -19.46666 -14.395596 29.410385 0.0 -8.774821 -3e-06 15.776846 -18.166922 6.078395 -0.609774 -1.795653 -3.889325 -4.807091 -11.046813 -2.93785 5e-06 -20.976019 -3e-06 -5.019969 -25.03356 -4.031882 6e-06 2e-06 -0.0 -10.634534 -5.686972 -3.565587 10.573275 -17.922955 -3.113901 3e-06 -13.821212 -3e-06 -0.501776 -31.181511 -4.027017 -11.453025 -59.439953 7.419272 -13.982715 -7.150199 -2.875043 13.772731 -8.401492 -3.218242 0.347736 -34.211555 0.771649 -0.963028 -17.733372 2.621018 -1e-06 -1e-06 1e-06 -17.346422 -20.095221 -4.201783 21.757561 -1.638374 3.866427 0.0 -6.338823 -1e-06 -1.697591 -22.591755 -6.194005 -2e-06 -1e-06 -0.0 30.195696 -67.795311 170.20137 42.604984 -50.447998 -7.835429 29.774229 -0.200722 -0.048476 -1.039195 -3.040683 17.103039 22.182114 -20.375883 49.933315 -16.701811 -16.743528 28.476528 -1e-06 -12.690601 -1e-06 16.092907 -17.94733 2.773714 -0.105917 -1.513856 -4.275878 -5.039042 -5.612871 -2.953556 4e-06 -11.020521 -1e-06 -6.111295 -15.89533 -3.840476 -0.0 -1e-06 -0.0 -10.283371 -5.680289 -4.341836 11.028292 -11.302402 -2.372635 -1.384268 -14.238581 -6.320122 -0.625438 -26.924191 -3.827603 -4.581079 -50.119148 -3.56586 -13.708522 -7.363477 -3.720939 18.141148 -14.052739 -3.242678 7e-06 -18.787266 -5e-06 -0.429712 -8.456041 2.555502 1e-06 -2e-06 -1e-06 -15.923534 -20.094482 -5.473583 30.419207 -7.190824 1.735927 2e-06 -8.162922 -2e-06 -1.861903 -22.861467 -6.167942 2e-06 -3e-06 -1e-06 -166.77771 -4.854265 -14.5065 12.151747 0.00461 0.309433 -83.124313 6.91715 -5.848346 -3.631691 1.453233 2.219616 -1.0 0.0 -0.0 7.998749 -4.366006 -3.298245 18.218891 -0.062081 0.06934 -86.072586 7.241448 -5.062148 -4.017392 0.633161 1.693184 -1.000002 -0.0 -0.0 
0.0 0.0 0.0 0.0 -0.0 0.0 -0.368088 98.717361 0.370557 90.79895 8.873808 89.747482 1.639465 0.155399 -0.166736 -10.247446 -0.735618 -0.116977 17.023542 -0.236676 -2.32214 19.032993 6.591216 2.621339 -2.506209 -0.573511 -0.574906 -32.392254 1.348047 -2.831339 6e-06 1e-06 -0.0 0.066624 0.006773 0.154659 0.061902 0.023863 0.149609 0.01571 -0.002109 0.160033 -122.349617 -76.273758 138.949814 38.954258 -58.852982 0.021207 29.913382 0.257631 -0.065192 2.17584 -0.270746 8.643155 17.636635 -26.322729 52.411198 -19.466665 -14.395598 29.410389 -0.0 -8.774822 -3e-06 15.774904 -18.153444 6.068261 -0.609778 -1.795651 -3.889328 -4.807089 -11.046813 -2.937848 5e-06 -20.976019 -2e-06 -5.01997 -25.033556 -4.031882 5e-06 -1e-06 -0.0 -10.634535 -5.686969 -3.565587 10.573275 -17.922951 -3.113901 4e-06 -13.821209 -4e-06 -0.501776 -31.181507 -4.027017 -11.487459 -59.422306 7.42319 -13.982718 -7.150198 -2.875042 13.772732 -8.401491 -3.21824 0.347738 -34.211555 0.771648 -0.963028 -17.73337 2.621022 0.0 -1e-06 1e-06 -17.346422 -20.095221 -4.201783 21.757561 -1.638375 3.866427 1e-06 -6.338823 -1e-06 -1.697588 -22.591749 -6.194007 -2e-06 -2e-06 -2e-06 29.931017 -67.795502 170.47229 42.57048 -50.348892 -7.903521 29.733944 -0.154322 -0.04519 -0.967603 -2.905918 16.919262 22.182114 -20.375887 49.933319 -16.701817 -16.74353 28.476532 -2e-06 -12.690603 -1e-06 16.087591 -17.897411 2.779707 -0.105918 -1.513857 -4.275884 -5.039042 -5.612873 -2.953557 5e-06 -11.020525 -3e-06 -6.111296 -15.895334 -3.840474 -0.0 -0.0 -1e-06 -10.28337 -5.68029 -4.34184 11.028294 -11.302406 -2.372635 -1.38427 -14.238585 -6.32012 -0.625436 -26.924196 -3.827604 -4.592441 -50.082249 -3.550711 -13.708526 -7.363478 -3.720938 18.141151 -14.052741 -3.242679 7e-06 -18.787271 -4e-06 -0.429711 -8.456047 2.555504 2e-06 -2e-06 -2e-06 -15.923534 -20.094486 -5.473587 30.419214 -7.190826 1.735925 3e-06 -8.162925 -3e-06 -1.861902 -22.861469 -6.167945 2e-06 -5e-06 0.0 -167.149643 -4.829981 -14.411654 12.553451 0.00489 0.309444 -83.176498 6.786364 -5.767092 -3.618026 1.443838 2.218376 -1.0 0.0 0.0 7.587453 -4.481005 -3.460132 18.667463 -0.056978 0.058347 -86.073425 7.291301 -5.138279 -3.973683 0.620334 1.688126 -1.000002 -0.0 0.0 
